<svg width="27" height="22" viewBox="0 0 27 22" fill="none" xmlns="http://www.w3.org/2000/svg">
<g id="Shape">
<path fill-rule="evenodd" clip-rule="evenodd" d="M15.5909 0.868615C15.7862 0.673352 16.1028 0.673352 16.2981 0.868615L26.0758 10.6464C26.2711 10.8417 26.2711 11.1582 26.0758 11.3535L16.2981 21.1313C16.1028 21.3265 15.7862 21.3265 15.5909 21.1313C15.3957 20.936 15.3957 20.6194 15.5909 20.4242L24.5152 11.4999H1.27783C1.00169 11.4999 0.777832 11.2761 0.777832 10.9999C0.777832 10.7238 1.00169 10.4999 1.27783 10.4999H24.5152L15.5909 1.57572C15.3957 1.38046 15.3957 1.06388 15.5909 0.868615Z" fill="#121212"/>
<path d="M16.2981 0.868615L15.9445 1.22217V1.22217L16.2981 0.868615ZM15.5909 0.868615L15.9445 1.22217V1.22217L15.5909 0.868615ZM26.0758 10.6464L26.4294 10.2928L26.4294 10.2928L26.0758 10.6464ZM26.0758 11.3535L26.4294 11.7071L26.4294 11.7071L26.0758 11.3535ZM16.2981 21.1313L16.6516 21.4848H16.6516L16.2981 21.1313ZM15.5909 21.1313L15.2374 21.4848L15.2374 21.4848L15.5909 21.1313ZM15.5909 20.4242L15.2374 20.0706L15.2374 20.0706L15.5909 20.4242ZM24.5152 11.4999L24.8687 11.8535L25.7223 10.9999H24.5152V11.4999ZM24.5152 10.4999V10.9999H25.7223L24.8687 10.1464L24.5152 10.4999ZM15.5909 1.57572L15.2374 1.92927V1.92927L15.5909 1.57572ZM16.6516 0.515061C16.2611 0.124537 15.6279 0.124537 15.2374 0.515061L15.9445 1.22217H15.9445L16.6516 0.515061ZM26.4294 10.2928L16.6516 0.515061L15.9445 1.22217L25.7223 10.9999L26.4294 10.2928ZM26.4294 11.7071C26.8199 11.3165 26.8199 10.6834 26.4294 10.2928L25.7223 10.9999V10.9999L26.4294 11.7071ZM16.6516 21.4848L26.4294 11.7071L25.7223 10.9999L15.9445 20.7777L16.6516 21.4848ZM15.2374 21.4848C15.6279 21.8754 16.2611 21.8754 16.6516 21.4848L15.9445 20.7777H15.9445L15.2374 21.4848ZM15.2374 20.0706C14.8469 20.4611 14.8469 21.0943 15.2374 21.4848L15.9445 20.7777V20.7777L15.2374 20.0706ZM24.1616 11.1464L15.2374 20.0706L15.9445 20.7777L24.8687 11.8535L24.1616 11.1464ZM1.27783 11.9999H24.5152V10.9999H1.27783V11.9999ZM0.277832 10.9999C0.277832 11.5522 0.725547 11.9999 1.27783 11.9999V10.9999H0.277832ZM1.27783 9.99995C0.725547 9.99995 0.277832 10.4477 0.277832 10.9999H1.27783V9.99995ZM24.5152 9.99995H1.27783V10.9999H24.5152V9.99995ZM15.2374 1.92927L24.1616 10.8535L24.8687 10.1464L15.9445 1.22217L15.2374 1.92927ZM15.2374 0.515061C14.8469 0.905586 14.8469 1.53875 15.2374 1.92927L15.9445 1.22217V1.22217L15.2374 0.515061Z" fill="#121212"/>
</g>
</svg>
