<svg width="30" height="30" viewBox="0 0 30 30" fill="none" xmlns="http://www.w3.org/2000/svg">
<g id="brand / instagram">
<path d="M14.9883 7.27212C10.7336 7.27212 7.28676 10.7152 7.28676 14.9617C7.28676 19.2099 10.7336 22.653 14.9883 22.653C19.2398 22.653 22.6899 19.2099 22.6899 14.9617C22.6899 10.7152 19.2398 7.27212 14.9883 7.27212ZM14.9883 19.9584C12.2246 19.9584 9.9839 17.7212 9.9839 14.9634C9.9839 12.2039 12.2246 9.9684 14.9883 9.9684C17.7521 9.9684 19.9895 12.2039 19.9895 14.9634C19.9895 17.7212 17.7521 19.9584 14.9883 19.9584Z" fill="#FAFAFA"/>
<path d="M22.9964 8.78244C23.9883 8.78244 24.7923 7.97965 24.7923 6.98935C24.7923 5.99906 23.9883 5.19627 22.9964 5.19627C22.0046 5.19627 21.2006 5.99906 21.2006 6.98935C21.2006 7.97965 22.0046 8.78244 22.9964 8.78244Z" fill="#FAFAFA"/>
<path d="M29.2054 5.16633C28.424 3.15536 26.8331 1.5652 24.819 0.788423C23.6545 0.350965 22.4234 0.116434 21.1773 0.0898202C19.573 0.0199599 19.0649 0 14.9967 0C10.9285 0 10.407 -1.67303e-07 8.81608 0.0898202C7.5733 0.11477 6.34218 0.349301 5.1777 0.788423C3.16193 1.5652 1.57097 3.15536 0.791315 5.16633C0.353176 6.33067 0.118281 7.55822 0.0932919 8.8024C0.021657 10.4025 0 10.9098 0 14.9734C0 19.0353 -1.24121e-08 19.5526 0.0932919 21.1444C0.118281 22.3886 0.353176 23.6161 0.791315 24.7821C1.57263 26.7914 3.16359 28.3816 5.17937 29.16C6.33885 29.6124 7.56997 29.8686 8.81941 29.9085C10.4237 29.9784 10.9318 30 15 30C19.0682 30 19.5896 30 21.1806 29.9085C22.425 29.8836 23.6562 29.6474 24.8223 29.2116C26.8364 28.4315 28.4274 26.843 29.2087 24.832C29.6468 23.6677 29.8817 22.4401 29.9067 21.1959C29.9783 19.5958 30 19.0885 30 15.025C30 10.9614 30 10.4458 29.9067 8.85396C29.8851 7.59315 29.6518 6.34398 29.2054 5.16633ZM27.1763 21.0213C27.1646 21.9794 26.9913 22.9291 26.6582 23.829C26.15 25.1381 25.1155 26.1727 23.8061 26.675C22.9148 27.006 21.9752 27.179 21.024 27.1923C19.4414 27.2655 18.9949 27.2838 14.9367 27.2838C10.8752 27.2838 10.4604 27.2838 8.84773 27.1923C7.89982 27.1806 6.95691 27.006 6.0673 26.675C4.75289 26.1743 3.71168 25.1397 3.20358 23.829C2.87705 22.9408 2.70047 22.001 2.68547 21.0529C2.61384 19.4727 2.59718 19.0269 2.59718 14.9751C2.59718 10.9215 2.59718 10.5073 2.68547 8.89554C2.69713 7.93746 2.87039 6.98935 3.20358 6.08949C3.71168 4.77711 4.75289 3.74418 6.0673 3.24185C6.95691 2.91251 7.89982 2.73786 8.84773 2.72455C10.432 2.65303 10.8768 2.63307 14.9367 2.63307C18.9966 2.63307 19.413 2.63307 21.024 2.72455C21.9752 2.73619 22.9148 2.91085 23.8061 3.24185C25.1155 3.74584 26.15 4.78044 26.6582 6.08949C26.9847 6.97771 27.1613 7.9175 27.1763 8.8656C27.2479 10.4474 27.2662 10.8916 27.2662 14.9451C27.2662 18.997 27.2662 19.4328 27.1946 21.023H27.1763V21.0213Z" fill="#FAFAFA"/>
</g>
</svg>
