<svg width="30" height="30" viewBox="0 0 30 30" fill="none" xmlns="http://www.w3.org/2000/svg">
<path id="Shape" fill-rule="evenodd" clip-rule="evenodd" d="M2.30769 0C1.03319 0 0 1.03319 0 2.30769V27.6923C0 28.9668 1.03319 30 2.30769 30H27.6923C28.9668 30 30 28.9668 30 27.6923V2.30769C30 1.03319 28.9668 0 27.6923 0H2.30769ZM4.73078 11.5385H9.11539V25.3846H4.73078V11.5385ZM9.40385 6.93462C9.40385 8.30471 8.29317 9.41539 6.92308 9.41539C5.55299 9.41539 4.44231 8.30471 4.44231 6.93462C4.44231 5.56453 5.55299 4.45385 6.92308 4.45385C8.29317 4.45385 9.40385 5.56453 9.40385 6.93462ZM25.3846 16.978C25.3846 12.8125 22.6925 11.1931 20.018 11.1931C19.1424 11.1499 18.2705 11.3335 17.4894 11.7255C16.8963 12.0232 16.2753 12.7044 15.7965 13.8889H15.6734V11.5395H11.5385V25.3955H15.9373V18.0258C15.8737 17.2711 16.1152 16.2956 16.6094 15.7151C17.1036 15.1346 17.8105 14.996 18.3465 14.9256H18.5136C19.9125 14.9256 20.9506 15.7916 20.9506 17.9739V25.3955H25.3494L25.3846 16.978Z" fill="#FAFAFA"/>
</svg>
