<svg width="90" height="66" viewBox="0 0 90 66" fill="none" xmlns="http://www.w3.org/2000/svg">
<g id="Logo">
<g id="Vector">
<path d="M23.9988 0V7.15054H16.1473V27.4731H7.85145V7.15054H0V0H23.9988Z" fill="#FAFAFA"/>
<path d="M33.5651 6.62366C40.4907 6.62366 43.4905 10.8387 43.4905 16.8602C43.4905 17.6882 43.4535 18.5538 43.3794 19.2688H30.6764C31.0467 21.5645 32.0837 22.2796 33.3429 22.2796C34.491 22.2796 35.1576 21.7903 35.528 20.7366H43.1942C42.5647 25.3656 39.0093 28 33.2688 28C26.4173 28 22.7509 24.5753 22.7509 17.5C22.7509 11.2903 26.0099 6.62366 33.5651 6.62366ZM30.7134 14.828H35.8243C35.528 13.0968 34.5651 12.3441 33.2688 12.3441C31.9726 12.3441 31.0467 13.0215 30.7134 14.828Z" fill="#FAFAFA"/>
<path d="M56.1343 6.62366C63.7635 6.62366 65.8745 10.0484 66.356 14.9032H58.2453C58.1342 13.0968 57.2083 12.4946 56.0972 12.4946C54.2825 12.4946 53.8011 14.2258 53.8011 17.2366C53.8011 20.5484 54.2825 22.129 56.1343 22.129C57.3194 22.129 58.1342 21.1505 58.2453 19.7204H66.356C65.8004 24.8387 62.8006 28 55.8009 28C48.431 28 45.283 24.2742 45.283 17.3871C45.283 11.0269 48.2458 6.62366 56.1343 6.62366Z" fill="#FAFAFA"/>
<path d="M76.9636 0V10.6129C77.6673 7.63979 79.408 6.62366 82.5189 6.62366C86.9631 6.62366 89.2963 8.43011 89.8148 11.9301C89.963 12.9462 90 14.1129 90 15.7312V27.4731H81.8523V15.3548C81.8523 13.7742 81.1486 12.871 79.6672 12.871C77.9636 12.871 76.9636 14 76.9636 16.7097V27.4731H68.8159V0H76.9636Z" fill="#FAFAFA"/>
</g>
<g id="Vector_2">
<path d="M30.4903 60.7744L30.4899 60.7656L30.4892 60.7567C30.4179 59.7652 30.4174 58.8058 30.4174 57.3193V39.5172H36.6058V57.2454C36.6058 57.8907 36.6334 58.464 36.7248 58.9491C36.8162 59.4342 36.9878 59.9241 37.3472 60.3169C37.7229 60.7275 38.2001 60.9204 38.6822 61.0006C38.8168 61.0229 38.9562 61.0373 39.0995 61.0452V64.6489C38.0293 64.7658 36.5158 64.8522 35.5959 64.8522C33.4625 64.8522 32.284 64.462 31.6094 63.8745C30.9589 63.308 30.5774 62.3805 30.4903 60.7744ZM43.0939 57.0607V46.5356H49.2823V57.7995C49.2823 58.7203 49.5022 59.5954 50.0692 60.2532C50.6564 60.9344 51.4899 61.2375 52.4038 61.2375C53.4972 61.2375 54.4954 60.8678 55.1738 59.942C55.8055 59.0799 56.0465 57.8826 56.0465 56.4697V46.5356H62.2348V64.4828H56.6073L56.3376 62.1541L54.3671 62.0566C54.0657 63.4416 53.4804 64.0944 52.7563 64.4618C51.9475 64.8721 50.8281 65 49.3146 65C47.3191 65 45.9312 64.5815 45.0017 63.8842C44.094 63.2031 43.4998 62.1629 43.269 60.643C43.132 59.725 43.0939 58.6442 43.0939 57.0607ZM73.8702 64.4828H68.2587V39.5172H74.447V48.2322L76.3783 48.5964C76.7742 47.584 77.376 46.9749 78.1493 46.5946C78.9585 46.1968 80.0214 46.0185 81.365 46.0185C84.1499 46.0185 85.9869 46.9021 87.1599 48.3823C88.3669 49.9054 89 52.2206 89 55.3245C89 58.8246 88.184 61.2209 86.8608 62.7325C85.5568 64.2222 83.63 65 81.0672 65C79.8023 65 78.7104 64.8554 77.8471 64.4686C77.0232 64.0996 76.3721 63.4963 75.9697 62.461L74.0424 62.7257L73.8702 64.4828ZM13.7341 39C17.8025 39 20.5971 39.9951 22.4374 41.6214C24.0472 43.0439 25.0331 45.0433 25.4414 47.5646H19.1253C18.734 46.5319 18.0916 45.7244 17.2648 45.1552C16.2572 44.4615 15.0419 44.1662 13.8086 44.1662C12.0134 44.1662 10.3837 44.6909 9.22695 46.0323C8.09485 47.345 7.56058 49.2758 7.56058 51.7784C7.56058 54.792 8.24956 56.85 9.47453 58.1522C10.7125 59.4682 12.3281 59.8338 13.7714 59.8338C15.1095 59.8338 16.335 59.5587 17.324 58.8464C18.1312 58.2652 18.7024 57.4495 19.0616 56.4354H25.3623C24.8904 59.2847 23.7217 61.3047 22.0012 62.6613C20.0447 64.2041 17.2346 65 13.548 65C9.33217 65 6.24134 63.9326 4.19917 61.9018C2.15806 59.8719 1 56.7159 1 52.1847C1 48.2692 1.96048 44.9912 3.96272 42.7034C5.94456 40.439 9.0745 39 13.7341 39ZM74.447 56.2111C74.447 57.8665 74.7699 59.1412 75.4728 60.0147C76.2108 60.932 77.2262 61.2375 78.2013 61.2375C78.8439 61.2375 79.4521 61.1036 79.9929 60.7948C80.5356 60.4849 80.9519 60.0323 81.2594 59.4859C81.8536 58.4303 82.0672 56.9805 82.0672 55.2876C82.0672 53.7777 81.8147 52.4407 81.2093 51.4473C80.5671 50.3935 79.5538 49.781 78.2757 49.781C77.1205 49.781 76.0647 50.1746 75.3551 51.2002C74.7014 52.145 74.447 53.4847 74.447 55.1398V56.2111Z" stroke="#E1F264" stroke-width="2"/>
</g>
</g>
</svg>
