<svg width="93" height="92" viewBox="0 0 93 92" fill="none" xmlns="http://www.w3.org/2000/svg">
<g id="Logo">
<path d="M58.7412 77.0958L53.8463 84.6507C73.2173 80.5645 87.7573 63.3733 87.7573 42.7862C87.7573 39.1673 87.308 35.6533 86.4621 32.297L81.8656 40.5688C81.909 41.3024 81.9311 42.0417 81.9311 42.7862C81.9311 58.3316 72.3338 71.6354 58.7412 77.0958Z" fill="white"/>
<path d="M37.7572 84.9669L33.1163 77.8041C18.5186 72.8639 8.01104 59.0522 8.01104 42.7862C8.01104 41.2938 8.09949 39.822 8.27144 38.3759L3.94708 30.5938C2.80044 34.4578 2.18483 38.5501 2.18483 42.7862C2.18483 63.9578 17.5621 81.5379 37.7572 84.9669Z" fill="white"/>
<path d="M70.424 15.9871L78.9032 16.72C71.081 6.55236 58.7912 0 44.971 0C31.0917 0 18.7559 6.60861 10.9386 16.8508L19.3774 16.1214C26.0188 9.7452 35.0372 5.82621 44.971 5.82621C54.8349 5.82621 63.7962 9.6902 70.424 15.9871Z" fill="white"/>
<path d="M45.8705 91.7154L12.2569 38.4661H38.0707V47.4945H29.7137L45.8705 73.29L51.8133 65.3671H63.3273L45.8705 91.7154Z" fill="white"/>
<path d="M69.8272 55.2332H57.9417L63.3273 47.4945H54.9703V38.4661H80.5984L69.8272 55.2332Z" fill="white"/>
<path d="M9.09981 32.3857L0 18.9352H92.8552L84.1268 32.3857H72.2413L76.1413 28.1479H51.6275L51.0704 56.523L46.6133 62.7876L41.4134 56.523V28.1479H16.7139L19.6853 32.3857H9.09981Z" fill="white"/>
</g>
</svg>
